<svg width="1341" height="1244" viewBox="0 0 1341 1244" fill="none" xmlns="http://www.w3.org/2000/svg">
<g filter="url(#filter0_df_106_4)">
<path d="M678.868 493.105C678.868 573.681 618.232 639 543.434 639C468.636 639 408 573.681 408 493.105C408 412.53 468.636 347.21 543.434 347.21C618.232 347.21 678.868 412.53 678.868 493.105Z" fill="#FFC700" fill-opacity="0.91" shape-rendering="crispEdges"/>
</g>
<g filter="url(#filter1_df_106_4)">
<ellipse cx="162.697" cy="166.107" rx="162.697" ry="166.107" transform="matrix(0.987832 -0.155522 0.113022 0.993593 491.762 227.606)" fill="#8C20E4" fill-opacity="0.91" shape-rendering="crispEdges"/>
<path d="M831.477 342.12C841.815 433.006 778.45 517.961 689.971 531.891C601.491 545.821 521.369 483.457 511.03 392.571C500.692 301.685 564.057 216.73 652.536 202.8C741.015 188.87 821.138 251.234 831.477 342.12Z" stroke="black" shape-rendering="crispEdges"/>
</g>
<g filter="url(#filter2_f_106_4)">
<ellipse cx="431.5" cy="817.5" rx="230.5" ry="225.5" fill="#7A0EAD" fill-opacity="0.6"/>
<path d="M431.5 1043.5C559.067 1043.5 662.5 942.327 662.5 817.5C662.5 692.673 559.067 591.5 431.5 591.5C303.933 591.5 200.5 692.673 200.5 817.5C200.5 942.327 303.933 1043.5 431.5 1043.5Z" stroke="black"/>
</g>
<g filter="url(#filter3_f_106_4)">
<path d="M1140 718.5C1140 843.04 1036.8 944 909.5 944C782.198 944 679 843.04 679 718.5C679 593.96 782.198 493 909.5 493C1036.8 493 1140 593.96 1140 718.5Z" fill="#1D72D5" fill-opacity="0.79"/>
<path d="M909.5 944.5C1037.07 944.5 1140.5 843.327 1140.5 718.5C1140.5 593.673 1037.07 492.5 909.5 492.5C781.933 492.5 678.5 593.673 678.5 718.5C678.5 843.327 781.933 944.5 909.5 944.5Z" stroke="black"/>
</g>
<defs>
<filter id="filter0_df_106_4" x="208" y="147.21" width="670.868" height="691.79" filterUnits="userSpaceOnUse" color-interpolation-filters="sRGB">
<feFlood flood-opacity="0" result="BackgroundImageFix"/>
<feColorMatrix in="SourceAlpha" type="matrix" values="0 0 0 0 0 0 0 0 0 0 0 0 0 0 0 0 0 0 127 0" result="hardAlpha"/>
<feOffset dy="4"/>
<feGaussianBlur stdDeviation="2"/>
<feComposite in2="hardAlpha" operator="out"/>
<feColorMatrix type="matrix" values="0 0 0 0 0 0 0 0 0 0 0 0 0 0 0 0 0 0 0.25 0"/>
<feBlend mode="normal" in2="BackgroundImageFix" result="effect1_dropShadow_106_4"/>
<feBlend mode="normal" in="SourceGraphic" in2="effect1_dropShadow_106_4" result="shape"/>
<feGaussianBlur stdDeviation="100" result="effect2_foregroundBlur_106_4"/>
</filter>
<filter id="filter1_df_106_4" x="309.428" y="0.351074" width="723.651" height="733.989" filterUnits="userSpaceOnUse" color-interpolation-filters="sRGB">
<feFlood flood-opacity="0" result="BackgroundImageFix"/>
<feColorMatrix in="SourceAlpha" type="matrix" values="0 0 0 0 0 0 0 0 0 0 0 0 0 0 0 0 0 0 127 0" result="hardAlpha"/>
<feOffset dy="4"/>
<feGaussianBlur stdDeviation="2"/>
<feComposite in2="hardAlpha" operator="out"/>
<feColorMatrix type="matrix" values="0 0 0 0 0 0 0 0 0 0 0 0 0 0 0 0 0 0 0.25 0"/>
<feBlend mode="normal" in2="BackgroundImageFix" result="effect1_dropShadow_106_4"/>
<feBlend mode="normal" in="SourceGraphic" in2="effect1_dropShadow_106_4" result="shape"/>
<feGaussianBlur stdDeviation="100" result="effect2_foregroundBlur_106_4"/>
</filter>
<filter id="filter2_f_106_4" x="0" y="391" width="863" height="853" filterUnits="userSpaceOnUse" color-interpolation-filters="sRGB">
<feFlood flood-opacity="0" result="BackgroundImageFix"/>
<feBlend mode="normal" in="SourceGraphic" in2="BackgroundImageFix" result="shape"/>
<feGaussianBlur stdDeviation="100" result="effect1_foregroundBlur_106_4"/>
</filter>
<filter id="filter3_f_106_4" x="478" y="292" width="863" height="853" filterUnits="userSpaceOnUse" color-interpolation-filters="sRGB">
<feFlood flood-opacity="0" result="BackgroundImageFix"/>
<feBlend mode="normal" in="SourceGraphic" in2="BackgroundImageFix" result="shape"/>
<feGaussianBlur stdDeviation="100" result="effect1_foregroundBlur_106_4"/>
</filter>
</defs>
</svg>
